<svg width="65" height="97" viewBox="0 0 65 97" fill="none" xmlns="http://www.w3.org/2000/svg">
<g clip-path="url(#clip0_627_12610)">
<path d="M48.1259 64.6716C49.2453 64.478 50.1213 63.8004 51.0947 63.3164C52.1653 62.8324 53.1874 62.2032 54.3067 61.9128C56.2534 61.332 57.4701 62.6388 56.9834 64.5748C56.8861 65.0104 56.6914 65.3977 56.4968 65.7849C53.8687 71.2057 50.608 76.1909 46.4712 80.5953C44.7192 82.4829 42.6265 83.9833 40.3391 85.1933C38.3924 86.2581 38.441 86.2582 38.6357 88.3878C38.7817 90.3238 38.7817 92.3082 38.8304 94.2926C38.8304 94.6314 38.8304 95.0186 38.6844 95.3574C38.5384 95.8898 38.295 96.3254 37.711 96.3738C36.981 96.4222 36.6403 95.8898 36.543 95.309C36.2997 93.857 36.1537 92.405 36.0077 90.953C35.9103 90.0818 36.0077 89.2106 36.0077 88.3394C36.0077 87.9522 36.105 87.323 35.4236 87.4198C34.8396 87.4682 34.8883 88.0974 34.937 88.4846C35.1316 90.469 35.3263 92.405 34.937 94.3894C34.8883 94.6798 34.937 94.9702 34.8396 95.2606C34.7423 95.793 34.5963 96.3254 33.9636 96.3254C33.3309 96.3254 33.0876 95.8414 32.9416 95.3574C32.6009 94.3894 32.5036 93.373 32.4549 92.3566C32.4549 91.0498 32.4062 89.743 32.3576 88.4362C32.3576 87.565 32.0656 86.8874 31.1409 86.5486C26.7121 84.9029 23.7921 81.5633 21.2127 77.8849C17.9519 73.2385 15.6159 68.1565 14.1559 62.6388C13.7665 61.1384 13.2312 59.7348 12.7932 58.2344C12.0631 55.8628 11.3331 53.4912 11.1871 50.9744C11.0898 49.1352 10.8464 49.0384 8.89974 48.748C6.70969 48.4576 4.56831 48.0704 2.37827 47.7316C2.1836 47.7316 1.94026 47.6348 1.74559 47.5864C0.918234 47.3444 0.188219 47.0056 0.0422155 46.086C-0.103788 45.0695 0.674896 44.6823 1.40491 44.3435C3.93563 43.1819 6.46635 41.9719 9.04574 41.0039C10.4084 40.4715 11.2358 39.7939 11.4791 38.2935C11.9171 35.7767 12.7932 33.3567 14.0099 31.0819C17.1733 25.3707 22.186 22.1278 28.5128 20.6274C34.3043 19.2238 39.3657 20.9178 44.1838 23.967C45.2059 24.5962 45.8872 25.5643 46.4712 26.5807C50.17 32.9211 51.63 39.6487 50.5106 46.9572C49.6346 52.5232 49.0993 58.0892 47.8826 63.6068C47.8339 63.8972 47.7366 64.1876 48.1259 64.6716ZM52.8467 65.8816C52.4574 65.6396 52.1653 65.8816 51.8733 66.0753C50.5106 66.8013 49.1966 67.5757 47.7366 68.0597C45.5465 68.7373 44.3298 67.7209 44.5245 65.446C44.5245 65.1556 44.6218 64.8652 44.6705 64.5748C46.0332 58.3796 46.9092 52.0876 47.7366 45.7956C48.2719 41.6815 48.1746 37.6159 46.6659 33.7439C45.6925 31.2271 44.8165 28.5651 42.7725 26.7259C40.6311 24.7898 37.9544 23.5314 35.083 23.0958C27.5881 21.9342 19.12 26.1451 16.0052 32.8727C15.3239 34.3247 14.6912 35.8251 14.2532 37.3739C12.3552 44.1015 13.0852 50.6356 15.3239 57.1212C15.8592 58.6216 16.5406 60.122 16.9786 61.6224C18.3413 66.2205 20.3367 70.4797 22.8187 74.5453C24.7654 77.7397 27.2961 80.4985 30.3622 82.6765C32.5522 84.1769 34.937 84.6125 37.419 83.3541C39.6577 82.2409 41.7018 80.8857 43.5512 79.1917C47.3472 75.6101 49.9266 71.2057 52.6034 66.8497C52.798 66.5593 52.9927 66.2205 52.798 65.8332L52.8467 65.8816ZM4.66565 45.602C6.36902 46.328 7.92639 46.5216 9.48375 46.812C9.97043 46.9088 10.5544 46.812 10.7004 46.2312C10.9438 45.3115 10.9438 44.3919 10.7004 43.4239C10.6031 42.9883 10.2138 42.8915 9.82443 43.0851C8.12106 43.8111 6.36902 44.3919 4.61698 45.602H4.66565Z" fill="#FCF4E6"/>
<path d="M33.2335 59.4935C32.9415 57.8479 31.9195 56.1538 33.0875 54.5566C33.8175 54.5566 34.0122 55.089 34.2556 55.5246C35.1802 57.2187 35.8129 59.0095 36.0563 60.8971C36.2996 62.4943 35.7643 63.3171 34.2556 63.5107C33.3795 63.6075 33.4769 64.0431 33.3309 64.6239C32.8929 66.3663 31.8708 66.8019 30.5081 65.7371C28.5128 64.2367 26.8581 62.3975 25.4467 60.3163C25.2034 59.9291 25.0087 59.4935 25.398 59.1063C25.8847 58.6223 26.3714 59.0095 26.7121 59.3483C28.0261 60.6067 29.3401 61.8651 30.8488 63.3171C30.8488 62.0587 30.2648 61.1875 29.8268 60.2679C29.4861 59.4935 28.6101 58.6223 29.5348 57.9447C30.5568 57.1219 31.1895 58.2835 31.8708 58.8643C32.2115 59.1547 32.5035 59.4451 32.8442 59.7355C32.9902 59.6871 33.1362 59.6387 33.2822 59.5903L33.2335 59.4935Z" fill="#FCF4E6"/>
<path d="M26.9557 34.3247C26.9557 35.1475 26.3231 35.8251 25.447 35.7767C24.6197 35.7767 24.0843 35.3411 23.987 34.4699C23.9383 33.6471 24.571 32.9211 25.3984 32.8727C26.2257 32.8243 26.9557 33.4535 26.9557 34.3247Z" fill="#FCF4E6"/>
</g>
<g clip-path="url(#clip1_627_12610)">
<path d="M2.77237 12.3846C2.84789 11.8118 2.99893 11.3387 3.22549 10.9652C3.45206 10.6165 3.7038 10.3177 3.98071 10.0936C4.50936 9.67023 5.2394 9.49592 6.14566 9.62043C7.63091 9.79474 8.91477 10.5169 9.97207 11.8118C11.1552 13.2562 11.6084 14.7503 11.3315 16.2942C11.1552 17.3401 10.7273 18.1121 10.0979 18.6351C9.79586 18.8841 9.44342 19.0584 9.04064 19.1331C8.15956 19.3323 7.30365 19.2576 6.47292 18.9339C5.64218 18.6102 4.91214 18.0623 4.28279 17.2903C3.52758 16.3689 3.0241 15.2981 2.77237 14.0281C2.67167 13.5052 2.67167 12.9324 2.74719 12.3597L2.77237 12.3846ZM5.79322 11.3138C5.79322 11.3138 5.69253 11.3138 5.59183 11.3138C5.49114 11.3138 5.41562 11.3138 5.39044 11.3138C5.36527 11.3138 5.28975 11.3138 5.18905 11.3138C5.08836 11.3138 5.01283 11.3138 4.98766 11.3138C4.96249 11.3138 4.91214 11.3138 4.83662 11.3138C4.7611 11.3138 4.71075 11.3138 4.6604 11.3138C4.63523 11.3138 4.58488 11.3636 4.50936 11.3636C4.43384 11.3636 4.38349 11.4134 4.33314 11.4632C4.28279 11.513 4.20727 11.5379 4.1821 11.5628C3.88001 11.8118 3.77932 12.2601 3.85484 12.9573C3.98071 14.1028 4.43384 15.1238 5.21422 16.0701C5.31492 16.2195 5.51631 16.4188 5.8184 16.6927C6.62396 17.4397 7.42952 17.8133 8.3106 17.7884C8.73856 17.7884 9.09099 17.6639 9.34273 17.4646C9.84621 17.0662 9.97207 16.4187 9.77068 15.5223C9.54412 14.4764 9.11616 13.6048 8.53717 12.8826C7.80713 11.9861 6.90087 11.4632 5.86874 11.3387L5.79322 11.3138Z" fill="#FCF4E6"/>
<path d="M30.3625 0.954101C30.3625 0.954101 30.4884 0.854492 30.6394 0.854492C30.866 0.854492 31.0926 0.904297 31.3191 1.02881C31.6716 1.25293 32.024 2.0747 32.3764 3.49413C32.5527 4.1914 32.8044 5.08788 33.182 6.18358C33.9876 8.5742 34.4155 10.3423 34.5162 11.5376C34.5162 11.7119 34.5162 11.8364 34.5162 11.8862C34.4155 12.459 34.1134 12.7578 33.5848 12.7827C33.1316 12.8076 32.754 12.5835 32.452 12.1103C32.175 11.7119 31.8981 10.7656 31.6212 9.27146C31.5457 8.89793 31.445 8.42478 31.294 7.87693C31.1429 7.32908 30.9919 6.83104 30.866 6.4326C30.715 6.03417 30.6394 5.83495 30.6143 5.83495C30.5639 5.83495 30.3625 6.23338 30.0101 7.00535C28.8269 9.76951 27.4172 11.5625 25.7557 12.3593C25.4285 12.5337 25.1012 12.6084 24.7991 12.6333C24.5222 12.6333 24.2201 12.6084 23.9432 12.4839C23.616 12.3593 23.339 12.0854 23.1125 11.6621C22.8859 11.2885 22.7349 10.7158 22.6845 9.91892C22.6342 9.22166 22.6845 8.5742 22.8607 8.00145C23.4649 5.98436 24.346 4.34081 25.5292 3.07079C26.7123 1.80078 27.971 1.12842 29.2801 1.02881C29.3304 1.02881 29.3808 1.02881 29.4814 1.02881C29.5821 1.02881 29.6325 1.02881 29.6828 1.02881C30.136 1.02881 30.3877 1.00391 30.4381 0.929199L30.3625 0.954101ZM29.708 2.62255C29.708 2.62255 29.4563 2.52294 29.2549 2.52294C28.5248 2.57275 27.8452 2.87158 27.1906 3.41943C26.5109 3.94237 25.8564 4.73925 25.2774 5.81005C24.3208 7.5034 23.8929 8.89793 23.9684 10.0185C23.9684 10.3672 24.0439 10.6411 24.1446 10.8652C24.2201 11.0146 24.2705 11.1142 24.3208 11.1391C24.3712 11.164 24.4719 11.1889 24.6229 11.1889C25.0005 11.1391 25.504 10.7905 26.1585 10.1679C26.813 9.54539 27.3165 8.82322 27.7445 8.07615C28.2479 7.12987 28.7011 6.10887 29.129 4.96337C29.557 3.81786 29.7584 3.07079 29.7332 2.77197C29.7332 2.72216 29.7332 2.67236 29.708 2.64746V2.62255Z" fill="#FCF4E6"/>
<path d="M40.2552 13.6792C39.2483 13.3803 38.5937 12.708 38.2413 11.687C37.8889 10.666 37.914 9.6201 38.2413 8.4995L38.342 8.17577C38.7448 7.12987 39.5252 6.03417 40.6076 4.91357C41.3377 4.1416 41.8915 3.64355 42.2439 3.41943C42.5964 3.19531 43.0495 3.0708 43.6033 3.0459C43.9558 3.0459 44.283 3.0459 44.5851 3.17041C45.29 3.39453 45.8941 3.94238 46.3976 4.83886C46.8256 5.58593 46.9514 6.25829 46.75 6.90575C46.599 7.37889 46.3976 7.57811 46.1459 7.50341C45.9445 7.4536 45.7683 7.20458 45.6172 6.78124C45.5165 6.48241 45.3403 6.10888 45.0886 5.68554C44.8368 5.2622 44.6103 4.96337 44.4341 4.78906C44.3082 4.66455 44.0816 4.58984 43.7795 4.58984C43.4523 4.54004 43.0998 4.68945 42.7222 5.01318C41.7405 5.83495 40.9601 6.83104 40.3559 8.00145C40.2049 8.32518 40.1042 8.5742 40.0538 8.74852C39.6259 10.0683 39.6762 11.0893 40.23 11.8115C40.3811 12.0107 40.6328 12.185 40.9852 12.2597C41.5894 12.3843 42.3446 12.1103 43.3012 11.4131C43.7795 11.0893 44.132 10.8652 44.3585 10.7656C44.5851 10.666 44.7865 10.6411 45.0131 10.7158H45.0886C45.4662 10.8901 45.5921 11.1391 45.4914 11.4878C45.2648 12.2348 44.4089 12.8823 42.9236 13.48C41.9922 13.8784 41.0859 13.9531 40.23 13.6792H40.2552Z" fill="#FCF4E6"/>
<path d="M59.3122 11.7368C59.3122 11.7368 59.5388 11.7617 59.6646 11.8613C59.866 12.0107 59.9919 12.2349 60.0171 12.4839C60.0171 12.6582 59.9667 12.8574 59.8409 13.0566C59.715 13.2558 59.2619 13.8784 58.5318 14.8994C57.6759 16.0449 56.8703 17.2402 56.09 18.5351C55.5361 19.4814 55.0578 20.2036 54.6802 20.7016C54.4033 21.0752 54.1264 21.3491 53.8747 21.5234C53.3964 21.9467 52.9684 22.0215 52.616 21.7226C52.4398 21.5981 52.3391 21.3989 52.3139 21.1499C52.2132 20.4526 52.8677 19.083 54.2523 17.041C54.8816 16.0947 55.1837 15.6465 55.1585 15.6216C55.1333 15.6216 54.7557 15.6963 54.0509 15.9453C53.4215 16.1943 52.767 16.3437 52.0873 16.4433C51.4076 16.5429 50.9041 16.5429 50.5265 16.4433C50.0734 16.3686 49.6706 16.1694 49.3182 15.8955C48.6889 15.4223 48.4119 14.8496 48.4371 14.1772C48.4623 13.7788 48.6637 13.3306 49.0413 12.8574C49.3182 12.5088 49.5699 12.2349 49.8468 12.0605C50.7279 11.4131 51.8608 10.9399 53.2453 10.6411C54.6299 10.3423 55.8382 10.2925 56.8955 10.5166C57.4493 10.6411 57.978 10.8652 58.4563 11.2139C58.9094 11.5625 59.1863 11.7119 59.3374 11.687L59.3122 11.7368ZM57.6256 12.5835C57.6256 12.5835 57.7263 12.459 57.7263 12.4341C57.7263 12.4092 57.6507 12.3345 57.5249 12.2349C57.0717 11.8862 56.2913 11.7368 55.2089 11.7617C54.1516 11.8115 53.195 12.0107 52.3139 12.3594C51.4328 12.708 50.7783 13.1313 50.3755 13.6543C50.0986 14.0029 50.0482 14.2519 50.1993 14.3764L50.3503 14.4761C50.6021 14.6753 51.1055 14.7251 51.8608 14.6504C52.6411 14.5508 53.6481 14.3017 54.9068 13.8286C56.1655 13.3555 57.0466 12.9321 57.6256 12.5337V12.5835ZM63.2393 8.44971C63.5666 8.3999 63.7931 8.44971 63.919 8.49951C63.9694 8.52441 64.0197 8.64893 64.0701 8.79834C64.1204 8.92285 64.0701 9.07226 63.9694 9.22168C63.768 9.4707 63.0631 9.84423 61.8044 10.3423C61.7792 10.3423 61.6534 10.3921 61.4268 10.4917C61.2002 10.5913 61.0492 10.666 60.9233 10.6909C60.7975 10.7158 60.6464 10.7656 60.4702 10.8154C60.294 10.8652 60.1429 10.8901 60.0171 10.8901C59.8912 10.8901 59.7905 10.8403 59.715 10.7905C59.6143 10.7158 59.5639 10.5664 59.5639 10.3423C59.5639 10.1431 59.7402 9.91894 60.0926 9.69482C60.445 9.4707 60.9737 9.22168 61.7037 8.92285C62.4086 8.64893 62.9121 8.47461 63.2141 8.4248L63.2393 8.44971Z" fill="#FCF4E6"/>
</g>
<defs>
<clipPath id="clip0_627_12610">
<rect width="56.9899" height="76.2788" fill="white" transform="translate(0.0908203 20.1436)"/>
</clipPath>
<clipPath id="clip1_627_12610">
<rect width="61.3737" height="21.0424" fill="white" transform="translate(2.72168 0.854492)"/>
</clipPath>
</defs>
</svg>
