<svg xmlns="http://www.w3.org/2000/svg" width="56" height="56" viewBox="0 0 56 56" fill="none">
  <path d="M15.6651 16.1282L16.218 15.5753L27.3619 26.7193L27.7154 27.0728L28.069 26.7193L39.2131 15.5753L39.766 16.1282L28.622 27.2721L28.2684 27.6257L28.622 27.9792L39.766 39.1232L39.2131 39.6761L28.069 28.5321L27.7154 28.1786L27.3619 28.5321L16.218 39.6761L15.6651 39.1232L26.8091 27.9792L27.1627 27.6257L26.8091 27.2721L15.6651 16.1282ZM27.7312 54.5307C24.0011 54.5307 20.5252 53.8191 17.283 52.4142C14.0327 51.0057 11.1871 49.0724 8.72745 46.6282C6.28466 44.1853 4.35119 41.34 2.92667 38.0887C1.52197 34.8468 0.810547 31.3713 0.810547 27.6415C0.810547 23.9113 1.5221 20.4191 2.92775 17.1444C4.33624 13.8631 6.26903 11.0188 8.71122 8.59212C11.1542 6.16457 13.9996 4.24636 17.2515 2.83722C20.4937 1.43226 23.9695 0.720703 27.6997 0.720703C31.4298 0.720703 34.9221 1.43226 38.1968 2.83791C41.4794 4.24693 44.3239 6.16462 46.7503 8.591C49.1766 11.0173 51.0943 13.8618 52.5034 17.1288C53.9091 20.4036 54.6205 23.8957 54.6205 27.61C54.6205 31.3245 53.9089 34.816 52.504 38.0581C51.095 41.3098 49.1766 44.1559 46.7481 46.6153C44.3219 49.0567 41.4776 50.9897 38.2111 52.4141C34.9367 53.8194 31.4449 54.5307 27.7312 54.5307ZM27.7312 53.7982C34.9966 53.7982 41.1882 51.2584 46.2761 46.1705C51.364 41.0826 53.9039 34.8911 53.9039 27.6257C53.9039 20.3603 51.364 14.1688 46.2761 9.08091C41.1882 3.99301 34.9966 1.45321 27.7312 1.45321C20.4658 1.45321 14.2744 3.99301 9.18649 9.08091C4.09858 14.1688 1.55878 20.3603 1.55878 27.6257C1.55878 34.8911 4.09858 41.0826 9.18649 46.1705C14.2744 51.2584 20.4658 53.7982 27.7312 53.7982Z" fill="#FCF4E6" stroke="#FCF4E6"/>
</svg>