<svg width="272" height="137" viewBox="0 0 272 137" fill="none" xmlns="http://www.w3.org/2000/svg">
<g clip-path="url(#clip0_627_12288)">
<path d="M56.9764 97.478C55.342 94.3659 54.0847 92.3948 53.2256 90.2785C50.8578 84.4691 53.1208 80.0705 59.2394 78.5352C67.642 76.4396 75.5207 78.5352 83.106 81.9378C88.3655 84.3031 88.3236 84.4068 88.3445 78.4729C88.3445 71.2734 91.1943 67.933 98.4863 66.6466C108.649 64.8415 118.12 66.5636 126.816 72.2278C127.508 72.6843 128.22 73.1407 128.953 73.5142C129.205 73.6387 129.582 73.5142 129.959 73.5142C131.049 72.3523 130.232 71.0452 130.127 69.8003C128.304 50.1727 131.154 31.7486 144.04 15.8349C148.839 9.92175 154.643 5.25347 161.642 2.12053C169.395 -1.34438 176.896 -0.140995 182.847 5.9174C192.737 16.0009 196.635 27.6405 191.501 41.4171C190.893 43.077 189.909 44.6745 190.034 46.8116C192.276 46.8946 193.869 45.546 195.587 44.716C204.493 40.442 213.503 36.3339 223.477 35.2135C233.032 34.1346 242.503 34.2176 251.702 37.6825C268.13 43.8861 275.506 58.8869 270.037 75.423C266.998 84.6143 261.152 91.6894 252.98 96.8764C248.307 99.8226 243.32 102.188 238.145 104.138C236.762 104.657 235.4 105.259 234.122 105.777C234.122 107.354 235.379 107.375 236.112 107.935C240.114 110.902 240.785 114.616 237.935 118.724C235.777 121.836 232.592 123.662 229.156 125.114C222.283 128.019 214.907 128.932 207.615 129.617C187.96 131.442 168.263 133.455 148.524 133.579C129.75 133.704 111.08 135.302 92.3467 135.986C85.851 136.214 79.2715 136.463 72.9852 134.14C71.0575 133.434 69.0249 133.538 67.0134 133.559C59.4699 133.642 51.9474 133.787 44.404 133.808C38.8512 133.808 33.3822 133.061 28.0598 131.463C24.6443 130.426 21.585 128.766 19.2172 126.027C14.5026 120.591 14.6074 113.537 19.8668 108.599C27.4731 101.441 36.8186 98.142 47.1699 97.5195C50.1244 97.3328 53.1208 97.4988 56.9973 97.4988L56.9764 97.478ZM143.014 129.119C144.69 129.119 146.366 129.202 148.043 129.119C162.417 128.206 176.791 127.397 191.145 126.276C200.155 125.571 209.186 125.094 218.092 123.351C222.869 122.417 227.584 121.214 231.628 118.35C233.158 117.272 234.52 115.944 234.247 113.848C233.954 111.566 231.984 111.172 230.224 110.653C226.473 109.533 222.618 109.699 218.762 109.74C217.107 109.74 215.41 110.051 213.796 109.325C212.832 108.889 212.12 108.205 212.183 107.064C212.246 106.151 212.811 105.507 213.608 105.196C214.362 104.885 215.2 104.615 216.017 104.574C227.584 104.055 237.705 99.3039 247.637 94.0339C254.321 90.486 259.35 85.2783 262.745 78.5352C271.022 62.1028 264.044 46.4589 246.212 41.5209C245.898 41.4379 245.563 41.3549 245.227 41.2926C232.382 38.6576 219.873 39.6743 207.887 45.048C201.182 48.0565 194.644 51.4591 188.044 54.6958C186.556 55.422 185.131 56.3764 183.392 56.4386C181.192 56.5009 179.809 55.1937 180.123 53.036C180.312 51.7703 180.898 50.5047 181.485 49.3221C183.099 46.0439 184.607 42.7242 185.948 39.3216C190.579 27.682 186.409 18.1794 178.51 9.79727C174.528 5.56469 169.437 4.34056 163.842 6.99629C158.184 9.67278 153.218 13.3037 149.195 18.0964C136.664 32.9935 133.836 50.4425 135.68 69.0741C135.952 71.7091 136.434 74.3441 136.287 76.9998C136.036 81.1494 133.626 82.6225 129.792 80.7967C127.696 79.8008 125.81 78.3484 123.924 76.9998C116.318 71.5639 107.748 71.0659 98.9263 72.3523C95.2594 72.8917 93.9183 74.9458 94.0021 78.6804C94.044 81.2117 94.9031 83.5562 95.7832 85.9007C96.4328 87.602 97.25 89.2411 97.8996 90.9632C98.4444 92.4155 98.591 93.9509 97.3129 95.1335C95.867 96.4614 94.2117 96.1709 92.6611 95.341C91.6343 94.8016 90.6704 94.1169 89.7275 93.4322C88.114 92.2496 86.5634 90.9839 84.9081 89.8428C78.3495 85.3197 71.0784 83.2242 63.074 83.9711C58.7994 84.3653 57.8564 86.1082 59.7633 89.9465C60.9576 92.3741 62.7387 94.3451 64.8551 96.0257C65.7771 96.7519 66.7829 97.3951 67.5582 98.2457C69.6745 100.611 68.8573 103.267 65.7352 103.702C63.6188 103.993 61.3767 103.827 59.2394 103.516C53.2047 102.644 47.2118 102.81 41.2609 104.034C35.0794 105.3 29.4218 107.748 24.7701 112.022C20.4954 115.944 20.8307 120.301 25.4615 123.766C27.2217 125.073 29.2542 125.82 31.3915 126.38C35.8128 127.5 40.3389 127.729 44.865 127.708C52.7437 127.666 60.6014 127.521 68.4801 127.417C70.6593 127.397 72.8595 127.355 74.913 128.247C77.1132 129.222 79.4181 129.368 81.7859 129.492C94.8822 130.135 107.874 128.89 120.886 127.687C124.721 127.334 128.765 126.338 132.327 127.874C135.931 129.451 139.472 129.222 143.118 129.139L143.014 129.119Z" fill="#FCF4E6"/>
</g>
<g clip-path="url(#clip1_627_12288)">
<path d="M18.1284 87.7094C17.5171 88.6904 16.5952 89.2308 15.3907 89.327C14.1861 89.4233 13.0437 89.1164 11.9111 88.4412L11.6045 88.2542C10.5763 87.5093 9.58582 86.3926 8.66096 84.9005C8.02582 83.9082 7.62085 83.169 7.47742 82.7072C7.33399 82.2454 7.35413 81.7346 7.45076 81.1577C7.51636 80.7824 7.6447 80.4555 7.86011 80.1459C8.28388 79.471 9.06649 78.9483 10.1593 78.6403C11.0885 78.3814 11.858 78.425 12.5027 78.8232C12.9941 79.128 13.1407 79.3917 13.0018 79.6352C12.8837 79.8196 12.5601 79.9453 12.0588 80.0088C11.6968 80.0547 11.2512 80.1112 10.7327 80.2617C10.1863 80.4156 9.8105 80.5762 9.57395 80.7191C9.41743 80.8237 9.275 81.0394 9.17451 81.3627C9.04617 81.6895 9.10253 82.1341 9.33303 82.6131C9.97555 83.8868 10.8268 85.0212 11.9424 86.0091C12.2561 86.2517 12.507 86.4457 12.6882 86.5357C14.0369 87.3529 15.1687 87.5764 16.0839 87.2063C16.3553 87.1154 16.5813 86.8892 16.7897 86.5239C17.0812 85.9223 16.9928 85.0018 16.5001 83.7938C16.2799 83.1723 16.1399 82.7383 16.0769 82.464C16.0416 82.1861 16.0692 81.9567 16.2116 81.741L16.2567 81.6506C16.5243 81.3061 16.8514 81.2082 17.1895 81.4194C17.9283 81.8904 18.4348 82.9838 18.6567 84.7344C18.8254 85.8423 18.6667 86.8224 18.1249 87.6816L18.1284 87.7094Z" fill="#FCF4E6"/>
<path d="M7.85077 67.3568C7.8818 67.1553 7.94774 67.0057 8.02071 66.9118C8.29534 66.6229 8.72364 66.6533 9.33697 67.0272C9.43108 67.1 10.0515 67.5296 11.1424 68.323C14.5721 70.8245 16.8203 72.4876 17.8625 73.3436C19.6264 74.7575 20.8463 75.6757 21.4632 76.0775C22.08 76.4793 22.6828 76.7699 23.268 76.9216C23.7068 77.0353 23.9786 77.1703 24.1041 77.2673C24.1041 77.2673 24.139 77.3194 24.1703 77.3436C24.1739 77.3714 24.1774 77.3992 24.2088 77.4234C24.3448 77.6038 24.4146 77.7079 24.446 77.7322C24.5122 77.8085 24.4985 77.9232 24.4361 78.1005C24.3945 78.2187 24.3529 78.3369 24.252 78.4344C23.9044 78.8172 23.2639 78.8984 22.3305 78.678C21.7175 78.5298 20.7696 77.9724 19.5183 77.0299C18.7062 76.427 18.1764 76.0425 17.929 75.8762C17.7478 75.7862 16.7788 75.0621 15.0291 73.7593C13.213 72.3802 11.6026 71.0598 10.194 69.7702C9.04354 68.7302 8.36713 68.0819 8.17186 67.8808C7.97306 67.6519 7.86838 67.4958 7.85077 67.3568Z" fill="#FCF4E6"/>
<path d="M18.3497 63.5688C18.1823 63.3642 18.1228 63.1176 18.1746 62.8569C18.2265 62.5963 18.3167 62.4154 18.4976 62.2796C18.6541 62.175 18.8733 62.119 19.1067 62.1741C19.3644 62.1979 19.5526 62.3434 19.6887 62.5238C19.8212 62.6764 19.8459 62.8709 19.8113 63.0447C19.7767 63.2185 19.6865 63.3994 19.5056 63.5352C19.3526 63.6675 19.1334 63.7236 18.8514 63.7311C18.5729 63.7664 18.3917 63.6764 18.3219 63.5724L18.3497 63.5688ZM20.5887 66.0519C20.5675 65.8851 20.6648 65.7599 20.8178 65.6275C21.0265 65.4882 21.2215 65.4634 21.4583 65.5463C21.9007 65.6879 23.0621 67.037 24.9461 69.6215C25.5985 70.527 26.1321 71.1652 26.5156 71.5118C26.8991 71.8585 27.3313 72.1425 27.8643 72.3291C28.547 72.5813 29.0867 72.5976 29.4312 72.4127C29.6955 72.2663 29.9462 72.2345 30.2074 72.2861C30.4686 72.3377 30.6533 72.4554 30.7893 72.6358C31.0301 72.9723 31.0445 73.3093 30.8432 73.7301C30.7565 73.9387 30.5827 74.1302 30.3496 74.3009C29.9601 74.5761 29.4415 74.7266 28.8183 74.7209C28.1915 74.6874 27.5785 74.5393 26.913 74.2001C25.9165 73.7053 25.0519 72.9115 24.2705 71.8812C23.967 71.4962 23.7541 71.1561 23.5796 70.8959C21.5593 67.9052 20.5368 66.3125 20.5679 66.111L20.5887 66.0519Z" fill="#FCF4E6"/>
<path d="M37.7046 70.2637C36.6329 70.7384 35.5743 70.6467 34.5359 70.0443C33.4975 69.4419 32.7023 68.5263 32.1853 67.3495L32.0281 67.0024C31.5946 65.8151 31.4357 64.3389 31.5236 62.5772C31.5706 61.3855 31.6634 60.5549 31.8055 60.1134C31.9476 59.6719 32.2325 59.2405 32.6601 58.8193C32.9382 58.5581 33.2513 58.349 33.5714 58.1955C34.323 57.8744 35.2317 57.9003 36.3255 58.2699C37.2417 58.5772 37.8412 59.0659 38.1556 59.7601C38.3896 60.2669 38.3448 60.5831 38.1048 60.6983C37.889 60.7821 37.5686 60.7098 37.1121 60.4571C36.8055 60.2701 36.3874 60.0972 35.8544 59.9107C35.325 59.7519 34.914 59.6346 34.6284 59.6144C34.43 59.6113 34.1864 59.6986 33.9326 59.9285C33.6195 60.1375 33.439 60.4992 33.3667 61.0448C33.1494 62.4558 33.2177 63.8871 33.5958 65.3073C33.7287 65.6857 33.8231 65.9843 33.9035 66.1718C34.5393 67.6158 35.3204 68.4202 36.3095 68.6336C36.5742 68.713 36.9049 68.6428 37.2807 68.4823C37.8616 68.1545 38.3235 67.3337 38.6141 66.0545C38.7872 65.4115 38.9014 64.9735 39.0403 64.73C39.1793 64.4865 39.3287 64.3264 39.5409 64.2148L39.6245 64.2042C40.056 64.0366 40.3521 64.1402 40.5128 64.5151C40.8691 65.3169 40.6237 66.5056 39.8322 68.0741C39.3393 69.0965 38.637 69.8067 37.7254 70.2046L37.7046 70.2637Z" fill="#FCF4E6"/>
<path d="M45.5748 49.9825C45.5748 49.9825 45.8286 49.7527 45.9643 49.7073C46.1836 49.6513 46.3369 49.7448 46.4592 50.0398C46.7841 50.8174 46.8598 52.5301 46.6304 55.1849L46.4286 57.6103L47.5128 58.574C49.3954 60.2552 50.6612 61.5346 51.3101 62.4123C51.5787 62.7453 51.7531 63.0055 51.8405 63.2485C51.9664 63.5714 52.0016 63.8492 51.8905 64.0892C51.783 64.3569 51.6335 64.517 51.4456 64.5973C50.7219 64.9149 49.1882 63.7542 46.8203 61.1463C46.3984 60.7198 46.1753 60.5222 46.1196 60.5293C46.1196 60.5293 46.0085 60.7693 45.8699 61.2386L45.6725 61.913L46.3675 63.3777C46.3675 63.3777 46.4898 63.6728 46.598 63.8567C46.6784 64.0441 46.7517 64.176 46.7936 64.2836C47.1534 65.1132 47.1682 65.676 46.8971 65.9927C46.7963 66.0902 46.7162 66.1286 46.6362 66.167C45.7768 66.53 44.2587 64.1532 42.0334 59.0992C41.9076 58.7764 41.7085 58.3216 41.4396 57.7628C41.1706 57.204 41.0342 56.7978 40.926 56.6139C40.8422 56.3986 40.7618 56.2112 40.6779 55.996C40.5976 55.8085 40.5451 55.6175 40.4718 55.4857C40.4263 55.3503 40.3879 55.2704 40.3844 55.2426C40.2547 54.6662 40.376 54.2838 40.7518 54.1232C40.7518 54.1232 40.8075 54.1161 40.8353 54.1126C40.8632 54.1091 40.891 54.1055 40.9188 54.102C41.1695 54.0702 41.4169 54.2365 41.6855 54.5695C41.9262 54.906 42.3591 55.6417 42.9561 56.78C43.6476 58.217 44.0212 58.9319 44.0734 58.8971L44.1418 58.0978C44.2142 57.5522 44.2724 56.8955 44.3722 56.1205C44.472 55.3456 44.5683 54.5428 44.689 53.7087C44.8096 52.8747 44.9408 52.124 45.079 51.4288C45.2173 50.7337 45.3523 50.2366 45.4912 49.9931L45.5748 49.9825Z" fill="#FCF4E6"/>
<path d="M54.0336 48.8529C54.1553 48.6963 54.3918 48.5534 54.7433 48.4241C55.2548 48.2181 55.7004 48.1616 56.1287 48.192C57.2464 48.3044 58.219 49.0564 58.9905 50.4549C59.0673 50.6146 59.179 50.8263 59.3013 51.1214C59.6788 52.0899 59.666 52.8821 59.2282 53.4458C58.9363 53.8216 58.1152 54.2645 56.7965 54.7987C56.7408 54.8058 56.6607 54.8442 56.5529 54.8861C56.4415 54.9002 56.3858 54.9073 56.3615 54.9386C56.3058 54.9456 55.9786 55.0436 55.3765 55.2046L54.7222 55.4005L55.1448 56.2786C55.7525 57.5003 56.523 58.2214 57.4878 58.4661C57.8396 58.5627 58.1494 58.5517 58.4487 58.4573C59.0681 58.2093 59.4711 57.5936 59.6298 56.6135C59.7264 56.0366 59.8163 55.6299 59.9239 55.3622C60.0071 55.1258 60.1601 54.9934 60.428 54.8748C60.6716 54.7874 60.87 54.7905 61.0791 54.8769C61.2881 54.9634 61.4241 55.1437 61.5429 55.411C61.7526 55.9491 61.7014 56.6614 61.4137 57.5167C61.0982 58.3755 60.6465 59.0539 60.0345 59.5832C59.7564 59.8443 59.4398 60.0256 59.064 60.1862C58.3611 60.4447 57.6335 60.5087 56.8742 60.3226C56.115 60.1366 55.4181 59.7732 54.8044 59.1734C54.1978 58.6291 53.7022 57.845 53.3213 56.8486C52.486 54.724 52.3854 52.5911 53.0229 50.4774C53.2411 49.7439 53.5676 49.1943 54.0023 48.8286L54.0336 48.8529ZM56.7831 50.4524C56.2498 50.0401 55.8074 49.8985 55.4559 50.0278C55.188 50.1465 54.9655 50.4005 54.7677 50.8491C54.5908 51.2386 54.48 51.7044 54.4426 52.302C54.3745 53.3271 54.4069 54.0288 54.5327 54.3516L54.5954 54.4002L54.7625 54.379C55.8342 53.9043 56.7701 53.4751 57.5841 52.9766L58.0293 52.6943L57.6903 51.8056C57.4457 51.2154 57.1595 50.7435 56.8074 50.4211L56.7831 50.4524Z" fill="#FCF4E6"/>
<path d="M70.5304 44.1647C70.5304 44.1647 70.7042 43.9732 70.8677 43.9243C71.1392 43.8334 71.4247 43.8537 71.6686 43.9921C71.8533 44.1099 71.9894 44.2903 72.1046 44.5298C72.2199 44.7693 72.4891 45.5539 72.9994 46.9009C73.503 48.4181 74.118 49.9212 74.8515 51.4658C75.3893 52.5834 75.7562 53.4686 75.9835 54.1456C76.1305 54.6352 76.239 55.045 76.257 55.4097C76.345 56.1044 76.1472 56.553 75.6565 56.6999C75.4129 56.7872 75.1831 56.7599 74.9113 56.625C74.2145 56.2616 73.3245 54.8215 72.3179 52.2387C71.8323 51.0862 71.5877 50.4961 71.5598 50.4997C71.5042 50.5067 71.3864 50.9169 71.1787 51.7338C70.9883 52.4638 70.7386 53.173 70.4298 53.8615C70.1174 54.5223 69.7839 55.0163 69.4536 55.3123C69.1024 55.6674 68.6815 55.9184 68.1908 56.0653C67.3487 56.3414 66.6313 56.263 66.0317 55.7743C65.6831 55.4797 65.4005 55.0356 65.1767 54.3864C65.0332 53.9246 64.9525 53.5113 64.9624 53.143C64.9224 51.934 65.178 50.6029 65.7817 49.1147C66.3853 47.6265 67.0904 46.4924 67.9492 45.6777C68.4325 45.2494 68.9542 44.9009 69.5771 44.6808C70.1757 44.492 70.5201 44.3071 70.5896 44.1854L70.5304 44.1647ZM70.2549 46.2324C70.2549 46.2324 70.2337 46.0657 70.2024 46.0414C70.2024 46.0414 70.0631 46.0591 69.896 46.0803C69.2696 46.2726 68.6403 46.8888 68.0047 47.9011C67.3969 48.9099 66.9597 49.9253 66.7488 50.9402C66.5379 51.9551 66.5079 52.8341 66.7387 53.539C66.8821 54.0007 67.0809 54.2296 67.3002 54.1736L67.4951 54.1489C67.8431 53.9918 68.215 53.5777 68.6004 52.823C69.0136 52.0647 69.381 50.9453 69.7375 49.5166C70.094 48.088 70.2629 46.9655 70.2513 46.2046L70.2549 46.2324ZM69.9474 38.4507C70.1315 38.1168 70.2774 37.9289 70.441 37.8799C70.4967 37.8729 70.6359 37.8552 70.8171 37.9452C70.9634 37.9831 71.0924 38.1079 71.1449 38.2989C71.2429 38.6253 71.1607 39.5392 70.8355 40.9921C70.8355 40.9921 70.801 41.1658 70.7491 41.4265C70.6973 41.6872 70.6663 41.8888 70.6246 42.007C70.583 42.1252 70.5206 42.3025 70.4617 42.5076C70.4029 42.7127 70.3369 42.8622 70.2361 42.9597C70.1666 43.0814 70.0623 43.1511 69.9509 43.1653C69.7838 43.1864 69.6375 43.1485 69.4493 43.003C69.2646 42.8852 69.1702 42.5866 69.1938 42.1037C69.1896 41.6242 69.3071 40.9882 69.4834 40.1471C69.6597 39.3059 69.8434 38.7462 69.9753 38.4472L69.9474 38.4507Z" fill="#FCF4E6"/>
<path d="M93.7974 37.0922C93.7974 37.0922 93.8911 36.9391 94.0233 36.8659C94.2356 36.7543 94.514 36.719 94.8031 36.767C95.2698 36.8773 95.9568 37.6089 96.864 38.9621C97.3141 39.6108 97.9316 40.4643 98.7688 41.4875C100.548 43.69 101.699 45.4075 102.251 46.6362C102.331 46.8237 102.377 46.9591 102.384 47.0147C102.493 47.6502 102.295 48.0988 101.759 48.3361C101.276 48.5386 100.812 48.4562 100.31 48.0681C99.8748 47.7563 99.1945 46.8543 98.301 45.3865C98.0846 45.0187 97.7741 44.5781 97.4216 44.0299C97.0413 43.4852 96.7029 43.0481 96.403 42.6909C96.103 42.3336 95.9391 42.1568 95.9113 42.1603C95.8556 42.1674 95.7798 42.6852 95.7324 43.6511C95.5947 47.0284 94.7974 49.4446 93.4035 50.9483C93.1289 51.2372 92.8194 51.4741 92.5236 51.5963C92.2278 51.7185 91.925 51.7851 91.5559 51.7754C91.159 51.7693 90.7688 51.5929 90.3575 51.2498C89.981 50.9587 89.6007 50.414 89.2409 49.5844C88.923 48.8624 88.7235 48.1818 88.6633 47.4836C88.5066 45.1319 88.7786 43.0363 89.514 41.2491C90.2495 39.4618 91.2853 38.2576 92.6492 37.633C92.7049 37.6259 92.7571 37.5911 92.8649 37.5492C92.9728 37.5073 93.0285 37.5002 93.0807 37.4654C93.5679 37.2907 93.8044 37.1477 93.8217 37.0608L93.7974 37.0922ZM93.7411 39.1039C93.7411 39.1039 93.4556 39.0836 93.212 39.171C92.4883 39.4886 91.8833 40.0735 91.425 40.9221C90.9075 41.75 90.5644 42.8382 90.3644 44.1623C90.0438 46.3204 90.1367 47.9462 90.6502 49.0951C90.8074 49.4423 90.9854 49.7303 91.1807 49.9314C91.3097 50.0562 91.4073 50.1567 91.4909 50.1461C91.5466 50.1391 91.658 50.125 91.8215 50.076C92.1938 49.8876 92.6038 49.3274 93.0237 48.399C93.4436 47.4705 93.7208 46.5319 93.8552 45.5831C94.0171 44.405 94.0813 43.1264 94.0758 41.7436C94.0703 40.3609 93.9925 39.5237 93.8631 39.1731C93.8561 39.1175 93.7933 39.069 93.7655 39.0726L93.7411 39.1039Z" fill="#FCF4E6"/>
<path d="M113.267 36.8832C112.718 37.9127 111.859 38.5016 110.665 38.6812C109.471 38.8608 108.312 38.6408 107.158 38.0247L106.824 37.8412C105.75 37.1867 104.711 36.1327 103.651 34.686C102.936 33.7321 102.506 33.0242 102.338 32.5937C102.167 32.1355 102.132 31.6318 102.197 31.0306C102.235 30.6588 102.359 30.3041 102.516 29.9738C102.905 29.2469 103.628 28.7034 104.71 28.3121C105.629 27.9698 106.395 27.9856 107.06 28.3247C107.548 28.6017 107.747 28.8306 107.612 29.1018C107.497 29.314 107.201 29.4362 106.703 29.5275C106.341 29.5734 105.903 29.6855 105.391 29.8915C104.88 30.0975 104.504 30.2581 104.268 30.401C104.111 30.5056 103.972 30.7491 103.903 31.0966C103.806 31.4477 103.887 31.861 104.173 32.3329C104.895 33.5683 105.823 34.6365 107.012 35.5304C107.353 35.7695 107.601 35.9357 107.782 36.0257C109.176 36.7525 110.301 36.9204 111.205 36.467C111.473 36.3483 111.699 36.122 111.848 35.7361C112.108 35.1102 111.936 34.2003 111.392 33.0271C111.119 32.4405 110.951 32.01 110.888 31.7357C110.825 31.4613 110.825 31.2355 110.967 31.0198L111.012 30.9294C111.249 30.5606 111.576 30.4627 111.91 30.6462C112.698 31.0545 113.256 32.113 113.59 33.8495C113.842 34.9469 113.743 35.9476 113.26 36.8276L113.267 36.8832Z" fill="#FCF4E6"/>
<path d="M102.131 12.207C101.946 11.8634 101.887 11.6169 101.925 11.4709C101.946 11.4118 102.019 11.3178 102.175 11.2133C102.304 11.1122 102.471 11.0911 102.649 11.1532C103 11.2498 103.645 11.8739 104.636 12.9906C104.639 13.0184 104.737 13.1189 104.932 13.32C105.128 13.5212 105.257 13.646 105.33 13.7778C105.4 13.8819 105.504 14.0381 105.637 14.1907C105.769 14.3433 105.846 14.5029 105.892 14.6383C105.909 14.7773 105.923 14.8884 105.91 15.0031C105.872 15.1491 105.715 15.2536 105.499 15.3374C105.284 15.4213 104.987 15.3176 104.611 15.0266C104.235 14.7355 103.753 14.2883 103.192 13.6536C102.63 13.019 102.261 12.5576 102.083 12.2696L102.131 12.207ZM107.132 15.0458C107.132 15.0458 107.1 14.7957 107.135 14.6219C107.214 14.3577 107.385 14.1385 107.653 14.0198C107.84 13.9395 108.067 13.9391 108.328 13.9907C108.589 14.0422 109.411 14.2768 110.759 14.6424C112.288 15.0979 113.894 15.4872 115.548 15.8139C116.764 16.0269 117.725 16.2438 118.376 16.4718C118.878 16.6341 119.268 16.8105 119.543 16.9732C120.181 17.3159 120.401 17.7115 120.238 18.2121C120.155 18.4486 120.009 18.6365 119.741 18.7551C119.024 19.1283 117.335 18.9754 114.65 18.3277C113.424 18.0313 112.815 17.911 112.787 17.9145C112.79 17.9423 113.035 18.3066 113.568 18.9448C114.067 19.5309 114.486 20.1555 114.849 20.787C115.215 21.4464 115.397 21.988 115.454 22.4326C115.517 22.9328 115.493 23.4157 115.33 23.9164C115.067 24.7403 114.57 25.2833 113.832 25.4898C113.394 25.6018 112.85 25.5578 112.202 25.3576C111.732 25.2195 111.342 25.0431 111.06 24.8248C110.042 24.1633 109.121 23.1507 108.273 21.8183C107.425 20.4859 106.929 19.25 106.75 18.0587C106.669 17.4196 106.73 16.7907 106.904 16.1476C107.084 15.5601 107.149 15.1847 107.076 15.0528L107.132 15.0458ZM108.645 16.4915C108.645 16.4915 108.495 16.4258 108.439 16.4328C108.384 16.4399 108.37 16.5546 108.304 16.7041C108.1 17.3229 108.237 18.1808 108.687 19.2812C109.138 20.3817 109.735 21.2942 110.429 22.0814C111.123 22.8687 111.837 23.371 112.545 23.5919C113.015 23.73 113.297 23.7224 113.38 23.486L113.439 23.2809C113.536 22.9298 113.41 22.3812 113.033 21.6384C112.652 20.8679 111.965 19.9104 111.002 18.7902C110.039 17.6699 109.234 16.8968 108.61 16.4394L108.645 16.4915Z" fill="#FCF4E6"/>
</g>
<defs>
<clipPath id="clip0_627_12288">
<rect width="256.016" height="135.899" fill="white" transform="translate(15.8018 0.232422)"/>
</clipPath>
<clipPath id="clip1_627_12288">
<rect width="120.117" height="66.6343" fill="white" transform="translate(0.0205078 24.1074) rotate(-7.22526)"/>
</clipPath>
</defs>
</svg>
