<svg width="297" height="26" viewBox="0 0 297 26" fill="none" xmlns="http://www.w3.org/2000/svg">
<path d="M185.28 2.80762H176.85V23.6133H185.28C191.47 23.6133 195.95 19.2421 195.95 13.1605C195.95 7.0788 191.47 2.80762 185.28 2.80762ZM185.28 20.7325H180.16V5.68841H185.28C189.65 5.68841 192.64 8.99933 192.64 13.2605C192.64 17.5217 189.65 20.7325 185.28 20.7325Z" fill="#14213D"/>
<path d="M203.21 14.4408H213.02V11.45H203.21V5.79845H214.62V2.80762H200.01V23.6133H214.94V20.7325H203.21V14.4408Z" fill="#14213D"/>
<path d="M222.2 2.80762H219V23.6133H234.04V20.7325H222.2V2.80762Z" fill="#14213D"/>
<path d="M244.07 11.6606C241.08 10.7004 239.38 10.1702 239.38 8.34972C239.38 6.52922 241.3 5.46892 243.22 5.46892C245.57 5.46892 247.27 6.95933 248.23 8.55977L250.68 6.84931C249.51 4.60869 247.05 2.57812 243.21 2.57812C239.8 2.57812 236.17 4.60868 236.17 8.33971C236.17 12.0707 239.26 13.3511 243.21 14.6314C246.3 15.5917 247.9 16.3419 247.9 18.1524C247.9 19.9629 245.98 21.1432 243.63 21.1432C240.86 21.1432 238.94 19.6528 237.87 17.6223L235.42 19.3327C236.59 22.0035 239.58 24.024 243.63 24.024C247.26 24.024 251.1 22.1035 251.1 18.1524C251.1 14.2013 247.9 12.921 244.06 11.6406L244.07 11.6606Z" fill="#14213D"/>
<path d="M269.35 15.9312C269.35 19.0221 267.22 20.9426 263.8 20.9426C260.38 20.9426 258.25 19.0221 258.25 15.9312V2.80762H255.05V16.1513C255.05 20.9526 258.46 23.9434 263.8 23.9434C269.14 23.9434 272.55 20.8526 272.55 16.0513V2.81763H269.35V15.9412V15.9312Z" fill="#14213D"/>
<path d="M285.99 2.80762H277.56V23.6133H285.99C292.18 23.6133 296.66 19.2421 296.66 13.1605C296.66 7.0788 292.18 2.80762 285.99 2.80762ZM285.99 20.7325H280.87V5.68841H285.99C290.47 5.68841 293.35 8.99933 293.35 13.2605C293.35 17.5217 290.36 20.7325 285.99 20.7325Z" fill="#14213D"/>
<path d="M149.44 8.35988C149.55 8.46991 149.76 8.67997 149.87 8.79L151.26 7.50965C151.05 7.29959 150.94 7.18955 150.73 6.97949L149.45 8.36989L149.44 8.35988Z" fill="#14213D"/>
<path d="M138.56 10.5998C138.45 10.3898 138.45 10.1697 138.45 9.95964L126.71 9.84961C126.6 10.2797 126.5 10.6998 126.39 11.13V11.24L138.55 10.5998H138.56Z" fill="#14213D"/>
<path d="M138.34 8.9995V8.35932L127.89 6.54883C127.68 6.97895 127.46 7.39906 127.36 7.71915V7.82918L138.35 8.9995H138.34Z" fill="#14213D"/>
<path d="M138.45 7.49894C138.45 7.28888 138.56 7.17885 138.66 6.96879V6.85876L129.81 3.54785C129.49 3.86794 129.28 4.18803 128.96 4.50812V4.61815L138.45 7.49894Z" fill="#14213D"/>
<path d="M138.98 6.4386C139.09 6.32857 139.19 6.22855 139.3 6.00848L132.37 1.7373C132.05 1.94736 131.62 2.16742 131.3 2.37748H131.19L138.98 6.4286V6.4386Z" fill="#14213D"/>
<path d="M140.8 15.0816C140.69 14.8715 140.48 14.6515 140.37 14.4414L126.82 20.4131C126.93 20.8432 127.14 21.3733 127.25 21.6934L140.8 15.0816Z" fill="#14213D"/>
<path d="M139.84 5.68902C139.95 5.57899 140.05 5.47896 140.16 5.47896H140.27L135.58 0.887695C135.37 0.887695 135.26 0.887696 135.05 0.997726C134.84 0.997726 134.62 1.10776 134.41 1.10776H134.3L139.85 5.69902L139.84 5.68902Z" fill="#14213D"/>
<path d="M139.09 12.0904C138.98 11.8803 138.98 11.6603 138.88 11.4502L126.18 13.2607V14.7511L139.09 12.0804V12.0904Z" fill="#14213D"/>
<path d="M139.84 13.5809C139.73 13.3709 139.63 13.1508 139.52 13.0508L126.18 16.8918V17.0019C126.18 17.432 126.29 17.8521 126.39 18.2822V18.3922L139.83 13.5909L139.84 13.5809Z" fill="#14213D"/>
<path d="M146.99 6.53958C147.1 6.64961 147.31 6.74963 147.42 6.85966L148.49 5.25923C148.28 5.1492 148.17 5.04916 147.96 4.8291L147 6.53958H146.99Z" fill="#14213D"/>
<path d="M144.96 5.5786L145.6 3.44801C145.39 3.33798 145.17 3.23796 145.07 3.12793H144.96L144.53 5.36855C144.64 5.47858 144.85 5.47857 144.96 5.5786Z" fill="#14213D"/>
<path d="M146.13 6.11887L146.98 4.30836C146.77 4.19833 146.55 4.09831 146.45 3.98828H146.34L145.59 6.01884C145.91 5.90881 146.02 6.01884 146.12 6.12887L146.13 6.11887Z" fill="#14213D"/>
<path d="M148.16 7.39983C148.27 7.50986 148.48 7.60988 148.59 7.71991L149.76 6.32953C149.55 6.21949 149.44 6.00944 149.23 5.89941L148.16 7.38981V7.39983Z" fill="#14213D"/>
<path d="M142.5 5.04896H142.93L142.61 1.95811C142.4 1.84808 142.18 1.74805 141.97 1.74805H141.86L142.5 5.05896V5.04896Z" fill="#14213D"/>
<path d="M141.54 5.04808H141.97L140.8 1.41708C140.59 1.30705 140.27 1.30706 140.05 1.20703H139.94L141.54 5.04808Z" fill="#14213D"/>
<path d="M143.89 5.25873L144.1 2.69801C143.89 2.48795 143.67 2.48796 143.46 2.37793H143.35V5.1487C143.56 5.1487 143.67 5.1487 143.88 5.25873H143.89Z" fill="#14213D"/>
<path d="M140.69 5.25914C140.8 5.25914 140.9 5.14911 141.12 5.14911H141.23L138.56 0.987961C138.35 0.987961 138.03 0.87793 137.81 0.87793H137.38L140.69 5.24913V5.25914Z" fill="#14213D"/>
<path d="M143.04 17.4321C142.93 17.322 142.72 17.112 142.61 17.002L141.22 18.2823C141.43 18.3923 141.54 18.6024 141.75 18.8124L143.03 17.4221L143.04 17.4321Z" fill="#14213D"/>
<path d="M153.92 15.1812C154.03 15.3912 154.03 15.6113 154.03 15.8214L165.77 15.9314C165.88 15.5013 165.98 15.0812 166.09 14.651V14.541L153.93 15.1812H153.92Z" fill="#14213D"/>
<path d="M154.13 16.7922V17.3224L164.58 19.1329C164.79 18.7028 165.01 18.2826 165.11 17.9626V17.8525L154.12 16.7822L154.13 16.7922Z" fill="#14213D"/>
<path d="M153.92 18.1721C153.81 18.3822 153.81 18.6022 153.71 18.7023L162.56 22.0132C162.88 21.6931 163.09 21.373 163.41 20.9429V20.8328L153.92 18.1621V18.1721Z" fill="#14213D"/>
<path d="M153.39 19.3525C153.28 19.4626 153.18 19.5626 153.07 19.7827L160 24.0538C160.43 23.8438 160.75 23.6237 161.07 23.4137H161.18L153.39 19.3625V19.3525Z" fill="#14213D"/>
<path d="M151.57 10.7007C151.68 10.9107 151.89 11.1308 152 11.3409L165.55 5.36923C165.44 4.93912 165.23 4.51899 165.12 4.08887L151.57 10.7007Z" fill="#14213D"/>
<path d="M152.64 20.093C152.53 20.203 152.43 20.203 152.32 20.3031H152.21L156.9 24.8943C157.11 24.8943 157.22 24.8943 157.43 24.7843C157.64 24.7843 157.86 24.6743 158.07 24.6743H158.18L152.63 20.083L152.64 20.093Z" fill="#14213D"/>
<path d="M153.39 13.5812C153.5 13.7913 153.6 14.0113 153.6 14.2214L166.3 12.4109V11.0205L153.39 13.5812Z" fill="#14213D"/>
<path d="M152.64 12.201C152.75 12.411 152.85 12.6311 152.96 12.7311L166.3 8.89006V8.78003C166.3 8.34991 166.19 7.9298 166.09 7.49968V7.38965L152.65 12.191L152.64 12.201Z" fill="#14213D"/>
<path d="M145.49 19.2429C145.38 19.1329 145.17 19.0329 145.06 18.9229L143.99 20.5233C144.2 20.6333 144.31 20.7333 144.52 20.9534L145.48 19.2429H145.49Z" fill="#14213D"/>
<path d="M147.52 20.2024L146.88 22.333C147.09 22.443 147.31 22.543 147.41 22.6531H147.52L147.95 20.3024C147.74 20.3024 147.63 20.3024 147.52 20.1924V20.2024Z" fill="#14213D"/>
<path d="M146.24 19.6731L145.39 21.4836C145.6 21.5936 145.82 21.6936 145.92 21.8037H146.03L146.78 19.7731C146.57 19.8831 146.46 19.7731 146.25 19.6631L146.24 19.6731Z" fill="#14213D"/>
<path d="M144.21 18.4929C144.1 18.3829 143.89 18.2829 143.78 18.1729L142.61 19.5632C142.82 19.6733 142.93 19.8833 143.14 19.9934L144.21 18.5029V18.4929Z" fill="#14213D"/>
<path d="M149.97 20.7327H149.54L149.86 23.8235C150.07 23.9335 150.29 24.0336 150.5 24.0336H150.61L149.97 20.7227V20.7327Z" fill="#14213D"/>
<path d="M150.83 20.7324H150.4L151.68 24.3634C151.89 24.4735 152.21 24.4735 152.43 24.5735H152.54L150.83 20.7324Z" fill="#14213D"/>
<path d="M148.59 20.6328L148.38 23.1935C148.59 23.3035 148.81 23.4036 149.02 23.4036H149.13V20.6328H148.6H148.59Z" fill="#14213D"/>
<path d="M151.79 20.6328C151.68 20.6328 151.58 20.7428 151.36 20.7428H151.25L153.92 24.904C154.13 24.904 154.45 25.014 154.67 25.014H155.1L151.79 20.6428V20.6328Z" fill="#14213D"/>
<path d="M150.08 10.6002L150.93 10.0601L163.95 1.95787L164.16 1.73781L164.91 0.357422H163.41L150.61 9.52995L141.97 15.4016L128.32 23.9339L127.46 25.4343H129.06L142.5 15.6116L150.08 10.6002Z" fill="#14213D"/>
<path d="M6.3801 14.9719C6.3801 15.612 6.1701 16.1422 5.8501 16.4623C5.5301 16.7824 5.0001 16.9924 4.3601 16.9924C3.7201 16.9924 3.2901 16.7824 2.8701 16.4623C2.5501 16.1422 2.3401 15.612 2.3401 14.9719V9.32031H0.850098V14.9719C0.850098 15.7221 0.960098 16.3622 1.2801 16.7824C1.6001 17.2025 2.0301 17.6326 2.5601 17.9527C3.0901 18.1627 3.6301 18.3828 4.2701 18.3828C4.9101 18.3828 5.5501 18.2728 5.9801 17.9527C6.5101 17.7426 6.9401 17.3125 7.2601 16.7824C7.5801 16.2522 7.6901 15.612 7.6901 14.9719V9.32031H6.4101V14.9719H6.3801Z" fill="#14213D"/>
<path d="M15.5502 15.9321L11.1802 9.32031H9.68018V18.1727H11.1802V11.5609L15.5502 18.1727H17.0502V9.32031H15.5502V15.9321Z" fill="#14213D"/>
<path d="M21.6302 9.31999L18.4302 18.1724H19.9202L20.5602 16.3619H24.2902L24.9302 18.1724H26.4202L23.2202 9.20996C23.2202 9.31999 21.6202 9.31999 21.6202 9.31999H21.6302ZM20.9902 15.1916L22.4802 11.0305L23.9702 15.1916H20.9802H20.9902Z" fill="#14213D"/>
<path d="M31.23 18.1727H36.14V17.0024H32.62V14.2217H35.72V13.0513H32.62V10.4906H36.14V9.32031H31.23V18.1727Z" fill="#14213D"/>
<path d="M42.5401 16.2522L39.4501 9.32031H37.8501V18.1727H39.3401V12.0911L42.1201 18.1727H43.0801L45.8501 12.0911V18.1727H47.2401V9.32031H45.7401L42.5401 16.2522Z" fill="#14213D"/>
<path d="M53.9602 9.64039C53.5302 9.43033 52.8902 9.32031 52.2502 9.32031H49.1602V18.1727H50.6501V14.5418H52.2502C53.0002 14.5418 53.5302 14.4317 54.0602 14.1116C54.4901 13.9016 54.9102 13.5815 55.1302 13.1514C55.3502 12.7213 55.4501 12.3011 55.4501 11.871C55.4501 11.3409 55.3402 10.9107 55.1302 10.4806C54.9202 10.0505 54.4902 9.84045 53.9602 9.6304V9.64039ZM53.5302 13.0513C53.2102 13.2614 52.8902 13.4814 52.2502 13.4814H50.6501V10.4906H52.2502C53.3202 10.4906 53.8502 11.0208 53.8502 11.981C53.9602 12.4112 53.7402 12.7312 53.5302 13.0513Z" fill="#14213D"/>
<path d="M62.4901 13.5808C62.8101 13.1506 63.0201 12.6205 63.0201 11.9803C63.0201 11.4502 62.9101 11.02 62.7001 10.5899C62.4901 10.1598 62.1701 9.83972 61.6301 9.62967C61.2001 9.41961 60.5601 9.30957 59.9201 9.30957H56.8301V18.162H58.3201V14.641H59.3901L61.4201 18.162H63.1301L60.8901 14.431C61.6401 14.321 62.1701 14.0009 62.4901 13.5808ZM58.2201 13.4707V10.4799H59.8201C60.3501 10.4799 60.7801 10.5899 61.1001 10.91C61.4201 11.2301 61.5301 11.5502 61.5301 11.9803C61.5301 12.4104 61.4201 12.8305 61.1001 13.0506C60.7801 13.3707 60.3501 13.4807 59.8201 13.4807H58.2201V13.4707Z" fill="#14213D"/>
<path d="M64.8398 18.1727H69.8499V17.0024H66.3298V14.2217H69.4298V13.0513H66.3298V10.4906H69.8499V9.32031H64.8398V18.1727Z" fill="#14213D"/>
<path d="M76.25 13.5808C75.93 13.4708 75.4 13.2608 74.86 13.0507C74.43 12.9407 74.11 12.8406 73.79 12.7306C73.58 12.6206 73.36 12.5205 73.15 12.3005C72.94 12.0804 72.94 11.8704 72.94 11.6603C72.94 11.2302 73.05 10.9101 73.37 10.7C73.69 10.49 74.01 10.38 74.44 10.38C74.87 10.38 75.29 10.49 75.51 10.7C75.83 10.9101 75.94 11.2302 75.94 11.5503H77.54C77.43 10.8001 77.22 10.1599 76.58 9.73978C76.05 9.30967 75.3 9.09961 74.45 9.09961C73.81 9.09961 73.28 9.20963 72.85 9.41969C72.42 9.62975 72 9.94984 71.78 10.2699C71.57 10.7 71.35 11.1202 71.35 11.6603C71.35 12.2005 71.46 12.6206 71.78 12.9407C72.1 13.2608 72.31 13.4708 72.74 13.6909C73.06 13.8009 73.59 14.011 74.13 14.121C74.56 14.231 74.98 14.331 75.2 14.4411C75.42 14.5511 75.63 14.6511 75.84 14.8712C76.05 15.0913 76.05 15.3013 76.05 15.6214C76.05 16.0515 75.94 16.2616 75.62 16.5817C75.3 16.9018 74.98 16.9018 74.45 16.9018C73.92 16.9018 73.6 16.7917 73.28 16.4716C72.96 16.1515 72.85 15.9415 72.85 15.5114H71.25C71.25 16.0415 71.36 16.4716 71.68 16.9018C72 17.3319 72.32 17.5419 72.85 17.752C73.28 17.962 73.81 18.0721 74.45 18.0721C75.09 18.0721 75.62 17.962 76.05 17.752C76.48 17.5419 76.9 17.2218 77.12 16.7917C77.34 16.3616 77.44 15.9415 77.44 15.5114C77.44 14.9812 77.33 14.5511 77.01 14.121C77.01 13.9109 76.69 13.6909 76.26 13.5908L76.25 13.5808Z" fill="#14213D"/>
<path d="M82.0203 9.31999L78.8203 18.1724H80.3103L80.9503 16.3619H84.6803L85.3203 18.1724H86.9203L83.7203 9.20996C83.7203 9.31999 82.0103 9.31999 82.0103 9.31999H82.0203ZM81.3803 15.1916L82.8703 11.0305L84.3603 15.1916H81.3703H81.3803Z" fill="#14213D"/>
<path d="M96.9501 9.85046C96.2001 9.53037 95.4601 9.32031 94.5001 9.32031H91.6201V18.1727H94.5001C95.4601 18.1727 96.3101 17.9627 96.9501 17.6426C97.5901 17.3225 98.2301 16.7924 98.6601 16.1522C99.0901 15.512 99.3001 14.6618 99.3001 13.8015C99.3001 12.9413 98.9801 12.0911 98.6601 11.3509C98.2301 10.7107 97.7001 10.1805 96.9501 9.86045V9.85046ZM96.8401 16.1422C96.3101 16.6723 95.4501 16.9924 94.4901 16.9924H93.0001V10.4806H94.4901C95.5601 10.4806 96.3001 10.8007 96.8401 11.3309C97.3801 11.861 97.6901 12.7212 97.6901 13.7815C97.6901 14.8418 97.4801 15.592 96.8401 16.1322V16.1422Z" fill="#14213D"/>
<path d="M100.68 18.1727H105.59V17.0024H102.07V14.2217H105.17V13.0513H102.07V10.4906H105.59V9.32031H100.68V18.1727Z" fill="#14213D"/>
</svg>
